<svg width="195" height="36" viewBox="0 0 195 36" fill="none" xmlns="http://www.w3.org/2000/svg">
<path d="M18.064 35.48C15.504 35.48 13.12 35.064 10.912 34.232C8.736 33.368 6.832 32.168 5.2 30.632C3.6 29.064 2.352 27.224 1.456 25.112C0.56 23 0.112 20.696 0.112 18.2C0.112 15.704 0.56 13.4 1.456 11.288C2.352 9.176 3.616 7.352 5.248 5.816C6.88 4.248 8.784 3.048 10.96 2.216C13.136 1.352 15.52 0.919998 18.112 0.919998C20.864 0.919998 23.376 1.4 25.648 2.36C27.92 3.288 29.84 4.68 31.408 6.536L27.376 10.328C26.16 9.016 24.8 8.04 23.296 7.4C21.792 6.728 20.16 6.392 18.4 6.392C16.64 6.392 15.024 6.68 13.552 7.256C12.112 7.832 10.848 8.648 9.76 9.704C8.704 10.76 7.872 12.008 7.264 13.448C6.688 14.888 6.4 16.472 6.4 18.2C6.4 19.928 6.688 21.512 7.264 22.952C7.872 24.392 8.704 25.64 9.76 26.696C10.848 27.752 12.112 28.568 13.552 29.144C15.024 29.72 16.64 30.008 18.4 30.008C20.16 30.008 21.792 29.688 23.296 29.048C24.8 28.376 26.16 27.368 27.376 26.024L31.408 29.864C29.84 31.688 27.92 33.08 25.648 34.04C23.376 35 20.848 35.48 18.064 35.48ZM48.3959 35.336C46.2199 35.336 44.2999 34.936 42.6359 34.136C40.9719 33.304 39.6759 32.056 38.7479 30.392C37.8199 28.696 37.3559 26.568 37.3559 24.008V9.368H43.3559V23.192C43.3559 25.496 43.8679 27.224 44.8919 28.376C45.9479 29.496 47.4359 30.056 49.3559 30.056C50.7639 30.056 51.9799 29.768 53.0039 29.192C54.0599 28.616 54.8759 27.752 55.4519 26.6C56.0599 25.448 56.3639 24.024 56.3639 22.328V9.368H62.3639V35H56.6519V28.088L57.6599 30.2C56.7959 31.864 55.5319 33.144 53.8679 34.04C52.2039 34.904 50.3799 35.336 48.3959 35.336ZM71.6597 35V9.368H77.3717V16.424L76.6997 14.36C77.4677 12.632 78.6677 11.32 80.2997 10.424C81.9637 9.528 84.0277 9.08 86.4917 9.08V14.792C86.2357 14.728 85.9957 14.696 85.7717 14.696C85.5477 14.664 85.3237 14.648 85.0997 14.648C82.8277 14.648 81.0197 15.32 79.6757 16.664C78.3317 17.976 77.6597 19.944 77.6597 22.568V35H71.6597Z" fill="white"/>
<path d="M102.904 35.336C100.088 35.336 97.912 34.616 96.376 33.176C94.84 31.704 94.072 29.544 94.072 26.696V3.704H100.072V26.552C100.072 27.768 100.376 28.712 100.984 29.384C101.624 30.056 102.504 30.392 103.624 30.392C104.968 30.392 106.088 30.04 106.984 29.336L108.664 33.608C107.96 34.184 107.096 34.616 106.072 34.904C105.048 35.192 103.992 35.336 102.904 35.336ZM89.848 14.36V9.56H106.936V14.36H89.848ZM125.888 35.336C123.712 35.336 121.792 34.936 120.128 34.136C118.464 33.304 117.168 32.056 116.24 30.392C115.312 28.696 114.848 26.568 114.848 24.008V9.368H120.848V23.192C120.848 25.496 121.36 27.224 122.384 28.376C123.44 29.496 124.928 30.056 126.848 30.056C128.256 30.056 129.472 29.768 130.496 29.192C131.552 28.616 132.368 27.752 132.944 26.6C133.552 25.448 133.856 24.024 133.856 22.328V9.368H139.856V35H134.144V28.088L135.152 30.2C134.288 31.864 133.024 33.144 131.36 34.04C129.696 34.904 127.872 35.336 125.888 35.336ZM149.152 35V9.368H154.864V16.424L154.192 14.36C154.96 12.632 156.16 11.32 157.792 10.424C159.456 9.528 161.52 9.08 163.984 9.08V14.792C163.728 14.728 163.488 14.696 163.264 14.696C163.04 14.664 162.816 14.648 162.592 14.648C160.32 14.648 158.512 15.32 157.168 16.664C155.824 17.976 155.152 19.944 155.152 22.568V35H149.152ZM182.327 35.336C179.479 35.336 176.983 34.776 174.839 33.656C172.727 32.504 171.079 30.936 169.895 28.952C168.743 26.968 168.167 24.712 168.167 22.184C168.167 19.624 168.727 17.368 169.847 15.416C170.999 13.432 172.567 11.88 174.551 10.76C176.567 9.64 178.855 9.08 181.415 9.08C183.911 9.08 186.135 9.624 188.087 10.712C190.039 11.8 191.575 13.336 192.695 15.32C193.815 17.304 194.375 19.64 194.375 22.328C194.375 22.584 194.359 22.872 194.327 23.192C194.327 23.512 194.311 23.816 194.279 24.104H172.919V20.12H191.111L188.759 21.368C188.791 19.896 188.487 18.6 187.847 17.48C187.207 16.36 186.327 15.48 185.207 14.84C184.119 14.2 182.855 13.88 181.415 13.88C179.943 13.88 178.647 14.2 177.527 14.84C176.439 15.48 175.575 16.376 174.935 17.528C174.327 18.648 174.023 19.976 174.023 21.512V22.472C174.023 24.008 174.375 25.368 175.079 26.552C175.783 27.736 176.775 28.648 178.055 29.288C179.335 29.928 180.807 30.248 182.471 30.248C183.911 30.248 185.207 30.024 186.359 29.576C187.511 29.128 188.535 28.424 189.431 27.464L192.647 31.16C191.495 32.504 190.039 33.544 188.279 34.28C186.551 34.984 184.567 35.336 182.327 35.336Z" fill="#4287AD"/>
</svg>
