<?xml version="1.0" encoding="UTF-8"?>
<!DOCTYPE svg PUBLIC "-//W3C//DTD SVG 1.1//EN" "http://www.w3.org/Graphics/SVG/1.1/DTD/svg11.dtd">
<!-- Creator: CorelDRAW X5 -->
<svg xmlns="http://www.w3.org/2000/svg" xml:space="preserve" width="210mm" height="80.88mm" style="shape-rendering:geometricPrecision; text-rendering:geometricPrecision; image-rendering:optimizeQuality; fill-rule:evenodd; clip-rule:evenodd"
viewBox="0 0 21000 8088"
 xmlns:xlink="http://www.w3.org/1999/xlink">
 <defs>
  <style type="text/css">
   <![CDATA[
    .fil0 {fill:#009C3D;fill-rule:nonzero}
   ]]>
  </style>
 </defs>
 <g id="__x0023_Layer_x0020_1">
  <metadata id="CorelCorpID_0Corel-Layer"/>
  <path class="fil0" d="M13621 3292l0 -1280 263 0 0 1100c-72,36 -171,104 -263,180zm-456 385l0 0c80,-96 164,-195 262,-277l0 -1388 -262 0 0 1665zm-3041 1017l0 0c0,342 136,667 383,914 247,247 572,383 914,383 145,0 294,-31 399,-83l0 -262c-123,52 -272,82 -399,82 -561,0 -1034,-473 -1034,-1034l0 -237c0,-561 474,-1034 1034,-1034 279,0 539,107 733,301 194,194 301,455 301,733l0 1534 263 0 0 -1584c-16,-335 -159,-648 -402,-882 -243,-235 -561,-364 -895,-364 -342,0 -667,136 -914,383 -247,247 -383,572 -383,914l0 237zm3930 -628l0 0c118,-118 273,-187 425,-187 324,0 578,254 578,578l0 237c0,324 -254,578 -578,578 -157,0 -308,-86 -427,-242 -105,-138 -173,-324 -184,-492l-213 260c42,199 146,389 292,523 152,138 341,214 532,214 464,0 841,-377 841,-841l0 -237c0,-219 -89,-429 -250,-591 -161,-162 -371,-251 -591,-251 -139,0 -360,50 -623,287l-1 1c-70,70 -236,236 -336,354 -169,185 -415,463 -624,742l0 410c232,-299 366,-466 585,-718 196,-228 438,-506 575,-626zm-6202 -495l0 0 0 -311c-237,-128 -497,-184 -841,-184 -351,0 -684,129 -937,362 -254,234 -394,542 -394,867l0 85c0,678 544,1229 1213,1229 544,0 767,-178 824,-234l0 -789 -888 0 0 263 642 0 0 395 -2 1c-83,33 -254,102 -576,102 -255,0 -494,-99 -672,-280 -179,-181 -278,-425 -278,-687l0 -85c0,-524 489,-967 1068,-967 401,0 637,65 841,232zm1913 309l0 0c100,0 184,17 251,49 33,-82 66,-149 115,-230 -71,-51 -242,-82 -367,-82 -479,0 -841,362 -841,841l0 1534 263 0 0 -1534c0,-340 238,-578 578,-578zm-4541 426l0 0 0 85c0,456 173,881 487,1197 313,316 733,489 1182,489 361,0 681,-81 951,-242 222,-133 321,-267 330,-279l0 -1414 -1344 0 0 263 1081 0 0 1070 -1 1c-127,127 -427,339 -1016,339 -384,0 -740,-146 -1001,-413 -261,-265 -405,-624 -405,-1010l0 -85c0,-365 164,-728 451,-997 292,-274 674,-425 1073,-425 373,0 633,56 841,183l0 -295c-217,-92 -477,-134 -841,-134 -969,0 -1787,764 -1787,1669zm7038 1686l0 0 0 -1534c0,-472 -369,-841 -841,-841 -220,0 -429,89 -591,251 -161,161 -250,371 -250,591l0 237c0,455 385,841 841,841 125,0 295,-31 399,-116l0 -277c-102,82 -251,131 -399,131 -324,0 -578,-254 -578,-578l0 -237c0,-324 254,-578 578,-578 325,0 578,254 578,578l0 1534 263 0zm-2497 -2568l0 0c179,0 333,38 472,117 65,-82 132,-148 181,-197 -147,-113 -397,-183 -653,-183 -365,0 -696,132 -933,371 -235,237 -364,566 -364,927l0 1534 262 0 0 -1534c0,-609 426,-1034 1035,-1034zm5628 121l0 0c-247,-247 -572,-383 -914,-383 -250,0 -502,93 -640,185 -286,190 -521,397 -944,944l0 393c359,-468 699,-836 957,-1039 170,-136 410,-220 627,-220 561,0 1034,474 1034,1034l0 237c0,277 -109,537 -307,733 -196,194 -455,301 -727,301 -461,0 -866,-316 -976,-748l-185 224c135,453 623,786 1161,786 342,0 667,-136 914,-383 247,-247 383,-572 383,-914l0 -237c0,-342 -136,-667 -383,-914z"/>
 </g>
</svg>
